<?xml version="1.0" encoding="UTF-8"?>
<svg version="1.1" xmlns="http://www.w3.org/2000/svg" width="1021" height="961">
<path d="M0 0 C39.6 0 79.2 0 120 0 C120 39.6 120 79.2 120 120 C179.4 120 238.8 120 300 120 C300 139.8 300 159.6 300 180 C319.8 180 339.6 180 360 180 C360 199.8 360 219.6 360 240 C379.8 240 399.6 240 420 240 C420 259.8 420 279.6 420 300 C439.8 300 459.6 300 480 300 C480 379.2 480 458.4 480 540 C499.8 540 519.6 540 540 540 C540 559.8 540 579.6 540 600 C520.2 600 500.4 600 480 600 C480 639.6 480 679.2 480 720 C460.2 720 440.4 720 420 720 C420 739.8 420 759.6 420 780 C400.2 780 380.4 780 360 780 C360 819.6 360 859.2 360 900 C340.2 900 320.4 900 300 900 C300 880.2 300 860.4 300 840 C161.4 840 22.8 840 -120 840 C-120 859.8 -120 879.6 -120 900 C-139.8 900 -159.6 900 -180 900 C-180 860.4 -180 820.8 -180 780 C-199.8 780 -219.6 780 -240 780 C-240 760.2 -240 740.4 -240 720 C-259.8 720 -279.6 720 -300 720 C-300 680.4 -300 640.8 -300 600 C-319.8 600 -339.6 600 -360 600 C-360 580.2 -360 560.4 -360 540 C-340.2 540 -320.4 540 -300 540 C-300 460.8 -300 381.6 -300 300 C-280.2 300 -260.4 300 -240 300 C-240 280.2 -240 260.4 -240 240 C-220.2 240 -200.4 240 -180 240 C-180 220.2 -180 200.4 -180 180 C-160.2 180 -140.4 180 -120 180 C-120 160.2 -120 140.4 -120 120 C-60.6 120 -1.2 120 60 120 C60 100.2 60 80.4 60 60 C40.2 60 20.4 60 0 60 C0 40.2 0 20.4 0 0 Z " fill="#03F013" transform="translate(421,1)"/>
<path d="M0 0 C39.6 0 79.2 0 120 0 C120 39.6 120 79.2 120 120 C179.4 120 238.8 120 300 120 C300 139.8 300 159.6 300 180 C319.8 180 339.6 180 360 180 C360 239.4 360 298.8 360 360 C340.2 360 320.4 360 300 360 C300 379.8 300 399.6 300 420 C161.4 420 22.8 420 -120 420 C-120 400.2 -120 380.4 -120 360 C-139.8 360 -159.6 360 -180 360 C-180 300.6 -180 241.2 -180 180 C-160.2 180 -140.4 180 -120 180 C-120 160.2 -120 140.4 -120 120 C-60.6 120 -1.2 120 60 120 C60 100.2 60 80.4 60 60 C40.2 60 20.4 60 0 60 C0 40.2 0 20.4 0 0 Z " fill="#069C10" transform="translate(421,1)"/>
<path d="M0 0 C39.6 0 79.2 0 120 0 C120 39.6 120 79.2 120 120 C179.4 120 238.8 120 300 120 C300 139.8 300 159.6 300 180 C240.6 180 181.2 180 120 180 C120 199.8 120 219.6 120 240 C139.8 240 159.6 240 180 240 C180 259.8 180 279.6 180 300 C140.4 300 100.8 300 60 300 C60 260.4 60 220.8 60 180 C0.6 180 -58.8 180 -120 180 C-120 160.2 -120 140.4 -120 120 C-60.6 120 -1.2 120 60 120 C60 100.2 60 80.4 60 60 C40.2 60 20.4 60 0 60 C0 40.2 0 20.4 0 0 Z " fill="#000000" transform="translate(421,1)"/>
<path d="M0 0 C178.2 0 356.4 0 540 0 C540 39.6 540 79.2 540 120 C520.2 120 500.4 120 480 120 C480 100.2 480 80.4 480 60 C341.4 60 202.8 60 60 60 C60 79.8 60 99.6 60 120 C40.2 120 20.4 120 0 120 C0 80.4 0 40.8 0 0 Z " fill="#000000" transform="translate(241,781)"/>
<path d="M0 0 C19.8 0 39.6 0 60 0 C60 19.8 60 39.6 60 60 C79.8 60 99.6 60 120 60 C120 139.2 120 218.4 120 300 C139.8 300 159.6 300 180 300 C180 319.8 180 339.6 180 360 C160.2 360 140.4 360 120 360 C120 399.6 120 439.2 120 480 C100.2 480 80.4 480 60 480 C60 381 60 282 60 180 C40.2 180 20.4 180 0 180 C0 120.6 0 61.2 0 0 Z " fill="#000000" transform="translate(781,241)"/>
<path d="M0 0 C19.8 0 39.6 0 60 0 C60 59.4 60 118.8 60 180 C40.2 180 20.4 180 0 180 C0 279 0 378 0 480 C-19.8 480 -39.6 480 -60 480 C-60 440.4 -60 400.8 -60 360 C-79.8 360 -99.6 360 -120 360 C-120 340.2 -120 320.4 -120 300 C-100.2 300 -80.4 300 -60 300 C-60 220.8 -60 141.6 -60 60 C-40.2 60 -20.4 60 0 60 C0 40.2 0 20.4 0 0 Z " fill="#000000" transform="translate(181,241)"/>
<path d="M0 0 C138.6 0 277.2 0 420 0 C420 19.8 420 39.6 420 60 C281.4 60 142.8 60 0 60 C0 40.2 0 20.4 0 0 Z " fill="#91DE52" transform="translate(301,361)"/>
<path d="M0 0 C19.8 0 39.6 0 60 0 C60 19.8 60 39.6 60 60 C99.6 60 139.2 60 180 60 C180 79.8 180 99.6 180 120 C160.2 120 140.4 120 120 120 C120 139.8 120 159.6 120 180 C80.4 180 40.8 180 0 180 C0 120.6 0 61.2 0 0 Z " fill="#069C10" transform="translate(181,601)"/>
<path d="M0 0 C79.2 0 158.4 0 240 0 C240 59.4 240 118.8 240 180 C220.2 180 200.4 180 180 180 C180 140.4 180 100.8 180 60 C120.6 60 61.2 60 0 60 C0 40.2 0 20.4 0 0 Z " fill="#91DE52" transform="translate(541,181)"/>
<path d="M0 0 C79.2 0 158.4 0 240 0 C240 19.8 240 39.6 240 60 C180.6 60 121.2 60 60 60 C60 99.6 60 139.2 60 180 C40.2 180 20.4 180 0 180 C0 120.6 0 61.2 0 0 Z " fill="#91DE52" transform="translate(241,181)"/>
<path d="M0 0 C19.8 0 39.6 0 60 0 C60 59.4 60 118.8 60 180 C40.2 180 20.4 180 0 180 C0 160.2 0 140.4 0 120 C-39.6 120 -79.2 120 -120 120 C-120 100.2 -120 80.4 -120 60 C-80.4 60 -40.8 60 0 60 C0 40.2 0 20.4 0 0 Z " fill="#069C10" transform="translate(781,601)"/>
<path d="M0 0 C19.8 0 39.6 0 60 0 C60 59.4 60 118.8 60 180 C40.2 180 20.4 180 0 180 C0 120.6 0 61.2 0 0 Z " fill="#069C10" transform="translate(781,241)"/>
<path d="M0 0 C19.8 0 39.6 0 60 0 C60 59.4 60 118.8 60 180 C40.2 180 20.4 180 0 180 C0 120.6 0 61.2 0 0 Z " fill="#069C10" transform="translate(181,241)"/>
<path d="M0 0 C39.6 0 79.2 0 120 0 C120 19.8 120 39.6 120 60 C80.4 60 40.8 60 0 60 C0 40.2 0 20.4 0 0 Z " fill="#FCA9DF" transform="translate(661,661)"/>
<path d="M0 0 C39.6 0 79.2 0 120 0 C120 19.8 120 39.6 120 60 C80.4 60 40.8 60 0 60 C0 40.2 0 20.4 0 0 Z " fill="#F28CD0" transform="translate(241,661)"/>
<path d="M0 0 C19.8 0 39.6 0 60 0 C60 39.6 60 79.2 60 120 C40.2 120 20.4 120 0 120 C0 80.4 0 40.8 0 0 Z " fill="#91DE52" transform="translate(721,241)"/>
<path d="M0 0 C19.8 0 39.6 0 60 0 C60 39.6 60 79.2 60 120 C40.2 120 20.4 120 0 120 C0 80.4 0 40.8 0 0 Z " fill="#03F013" transform="translate(661,241)"/>
<path d="M0 0 C19.8 0 39.6 0 60 0 C60 39.6 60 79.2 60 120 C40.2 120 20.4 120 0 120 C0 80.4 0 40.8 0 0 Z " fill="#03F013" transform="translate(301,241)"/>
<path d="M0 0 C19.8 0 39.6 0 60 0 C60 39.6 60 79.2 60 120 C40.2 120 20.4 120 0 120 C0 80.4 0 40.8 0 0 Z " fill="#91DE52" transform="translate(241,241)"/>
<path d="M0 0 C19.8 0 39.6 0 60 0 C60 19.8 60 39.6 60 60 C40.2 60 20.4 60 0 60 C0 40.2 0 20.4 0 0 Z " fill="#000000" transform="translate(781,901)"/>
<path d="M0 0 C19.8 0 39.6 0 60 0 C60 19.8 60 39.6 60 60 C40.2 60 20.4 60 0 60 C0 40.2 0 20.4 0 0 Z " fill="#000000" transform="translate(181,901)"/>
<path d="M0 0 C19.8 0 39.6 0 60 0 C60 19.8 60 39.6 60 60 C40.2 60 20.4 60 0 60 C0 40.2 0 20.4 0 0 Z " fill="#000000" transform="translate(781,721)"/>
<path d="M0 0 C19.8 0 39.6 0 60 0 C60 19.8 60 39.6 60 60 C40.2 60 20.4 60 0 60 C0 40.2 0 20.4 0 0 Z " fill="#069C10" transform="translate(721,721)"/>
<path d="M0 0 C19.8 0 39.6 0 60 0 C60 19.8 60 39.6 60 60 C40.2 60 20.4 60 0 60 C0 40.2 0 20.4 0 0 Z " fill="#069C10" transform="translate(241,721)"/>
<path d="M0 0 C19.8 0 39.6 0 60 0 C60 19.8 60 39.6 60 60 C40.2 60 20.4 60 0 60 C0 40.2 0 20.4 0 0 Z " fill="#000000" transform="translate(181,721)"/>
<path d="M0 0 C19.8 0 39.6 0 60 0 C60 19.8 60 39.6 60 60 C40.2 60 20.4 60 0 60 C0 40.2 0 20.4 0 0 Z " fill="#F28CD0" transform="translate(661,661)"/>
<path d="M0 0 C19.8 0 39.6 0 60 0 C60 19.8 60 39.6 60 60 C40.2 60 20.4 60 0 60 C0 40.2 0 20.4 0 0 Z " fill="#FCA9DF" transform="translate(241,661)"/>
<path d="M0 0 C19.8 0 39.6 0 60 0 C60 19.8 60 39.6 60 60 C40.2 60 20.4 60 0 60 C0 40.2 0 20.4 0 0 Z " fill="#000000" transform="translate(961,601)"/>
<path d="M0 0 C19.8 0 39.6 0 60 0 C60 19.8 60 39.6 60 60 C40.2 60 20.4 60 0 60 C0 40.2 0 20.4 0 0 Z " fill="#000000" transform="translate(661,601)"/>
<path d="M0 0 C19.8 0 39.6 0 60 0 C60 19.8 60 39.6 60 60 C40.2 60 20.4 60 0 60 C0 40.2 0 20.4 0 0 Z " fill="#000000" transform="translate(301,601)"/>
<path d="M0 0 C19.8 0 39.6 0 60 0 C60 19.8 60 39.6 60 60 C40.2 60 20.4 60 0 60 C0 40.2 0 20.4 0 0 Z " fill="#000000" transform="translate(1,601)"/>
<path d="M0 0 C19.8 0 39.6 0 60 0 C60 19.8 60 39.6 60 60 C40.2 60 20.4 60 0 60 C0 40.2 0 20.4 0 0 Z " fill="#000000" transform="translate(781,241)"/>
<path d="M0 0 C19.8 0 39.6 0 60 0 C60 19.8 60 39.6 60 60 C40.2 60 20.4 60 0 60 C0 40.2 0 20.4 0 0 Z " fill="#000000" transform="translate(181,241)"/>
<path d="M0 0 C19.8 0 39.6 0 60 0 C60 19.8 60 39.6 60 60 C40.2 60 20.4 60 0 60 C0 40.2 0 20.4 0 0 Z " fill="#000000" transform="translate(721,181)"/>
<path d="M0 0 C19.8 0 39.6 0 60 0 C60 19.8 60 39.6 60 60 C40.2 60 20.4 60 0 60 C0 40.2 0 20.4 0 0 Z " fill="#000000" transform="translate(241,181)"/>
<path d="M0 0 C19.8 0 39.6 0 60 0 C60 19.8 60 39.6 60 60 C40.2 60 20.4 60 0 60 C0 40.2 0 20.4 0 0 Z " fill="#069C10" transform="translate(421,1)"/>
</svg>
